<?xml version="1.0" encoding="UTF-8"?>
<svg width="71px" height="37px" viewBox="0 0 71 37" version="1.1" xmlns="http://www.w3.org/2000/svg" xmlns:xlink="http://www.w3.org/1999/xlink">
    <title>Logo_Sogeti_S</title>
    <defs>
        <polygon id="path-1" points="0.00235 0.3684 4.32425 0.3684 4.32425 4.6894 0.00235 4.6894"></polygon>
        <polygon id="path-3" points="0 0.14055 11.5311085 0.14055 11.5311085 16.06255 0 16.06255"></polygon>
        <polygon id="path-5" points="0.0908 0.2941 39.6068 0.2941 39.6068 11 0.0908 11"></polygon>
    </defs>
    <g id="Symbols" stroke="none" stroke-width="1" fill="none" fill-rule="evenodd">
        <g id="Desktop-/-Footer" transform="translate(-1058.000000, -215.000000)">
            <g id="Group" transform="translate(1058.000000, 214.000000)">
                <g id="Group-40" transform="translate(0.000000, 0.631600)">
                    <path d="M58.0025,2.7241 L59.9925,2.3951 L59.9915,6.9781 L65.3875,6.9801 L65.3865,8.3511 C65.3865,9.2121 64.6885,9.9091 63.8265,9.9091 L59.9905,9.9081 L59.9885,16.0851 C59.9885,17.3031 60.1825,18.1731 60.5685,18.6951 C60.9555,19.2171 61.6115,19.4791 62.5395,19.4791 C63.1785,19.4791 63.7435,19.4121 64.2375,19.2771 C64.7305,19.1411 65.1215,19.0161 65.4115,18.9001 L65.7715,20.6271 C65.9045,21.2701 65.6255,21.8211 64.8345,22.0921 C64.4125,22.2361 63.4545,22.4951 62.0755,22.4951 C60.9925,22.4951 60.0895,22.3501 59.3635,22.0601 C58.6385,21.7691 58.0635,21.3491 57.6385,20.7981 C57.2135,20.2461 56.9135,19.5791 56.7395,18.7961 C56.5665,18.0131 56.4805,17.1191 56.4805,16.1131 L56.4835,4.5131 C56.4835,3.6261 57.1255,2.8691 58.0025,2.7241" id="Fill-1" fill="#0070AD"></path>
                    <g id="Group-5" transform="translate(66.443750, 0.000000)">
                        <mask id="mask-2" fill="white">
                            <use xlink:href="#path-1"></use>
                        </mask>
                        <g id="Clip-4"></g>
                        <path d="M4.32435,2.5444 C4.32435,3.2014 4.11035,3.7234 3.68535,4.1104 C3.26135,4.4974 2.75835,4.6894 2.17835,4.6894 C1.57835,4.6894 1.06535,4.4964 0.64035,4.1094 C0.21635,3.7224 0.00235,3.2004 0.00235,2.5434 C0.00235,1.8664 0.21635,1.3354 0.64135,0.9484 C1.06635,0.5614 1.57935,0.3684 2.17835,0.3684 C2.75935,0.3684 3.26235,0.5624 3.68635,0.9494 C4.11135,1.3364 4.32435,1.8674 4.32435,2.5444" id="Fill-3" fill="#FF4019" mask="url(#mask-2)"></path>
                    </g>
                    <path d="M70.3843,22.1503 L69.4053,22.1503 C68.0073,22.1493 66.8763,21.0173 66.8763,19.6203 L66.8803,6.9803 L68.0713,6.9813 C69.3523,6.9813 70.3893,8.0193 70.3893,9.2983 L70.3843,22.1503 Z" id="Fill-6" fill="#0070AD"></path>
                    <path d="M51.5298,13.0942 C51.5298,12.6122 51.4618,12.1552 51.3278,11.7212 C51.1928,11.2882 50.9958,10.9112 50.7358,10.5942 C50.4748,10.2762 50.1578,10.0252 49.7828,9.8422 C49.4068,9.6592 48.9578,9.5672 48.4378,9.5672 C47.8988,9.5672 47.4268,9.6682 47.0208,9.8702 C46.6178,10.0722 46.2748,10.3372 45.9948,10.6652 C45.7158,10.9922 45.4988,11.3682 45.3448,11.7922 C45.1908,12.2162 45.0848,12.6492 45.0268,13.0922 L51.5298,13.0942 Z M41.3838,14.6522 C41.3848,13.3222 41.5828,12.1572 41.9778,11.1552 C42.3728,10.1532 42.8988,9.3192 43.5538,8.6552 C44.2088,7.9902 44.9608,7.4902 45.8088,7.1532 C46.6568,6.8162 47.5238,6.6472 48.4108,6.64819559 C50.4918,6.64819559 52.1138,7.2952 53.2798,8.5862 C54.4448,9.8772 55.0278,11.8042 55.0268013,14.3672 C55.0268013,14.5602 55.0218,14.7772 55.0118,15.0172 C55.0018,15.2582 54.9878,15.4752 54.9688,15.6672 L44.9968,15.6642 C45.0928,16.8782 45.5218,17.8182 46.2818,18.4832 C47.0428,19.1481956 48.1458,19.4802 49.5908,19.4812 C50.4388,19.4812 51.2158,19.4052 51.9178,19.2502 C52.0938,19.2122 52.2608,19.1732 52.4178,19.1332 C53.0518,18.9732 53.6838,19.4052 53.7878,20.0512 L54.0418,21.6212 C53.8488,21.7172 53.5848,21.8192 53.2468,21.9242 C52.9098,22.0302 52.5248,22.1272 52.0908,22.2132 C51.6568,22.2992 51.1898,22.3712 50.6888,22.4292 C50.1868,22.4872 49.6768,22.5162 49.1568,22.515225 C47.8278,22.515225 46.6718,22.3172 45.6888,21.9222 C44.7058,21.5272 43.8968,20.9782 43.2608,20.2742 C42.6258,19.5712 42.1538,18.7422 41.8468,17.7882 C41.5378,16.8342 41.3838,15.7892 41.3838,14.6522 L41.3838,14.6522 Z" id="Fill-8" fill="#0070AD"></path>
                    <path d="M22.8941,14.5356 C22.8941,13.0276 22.5821,11.8346 21.9561,10.9536 C21.3291,10.0746 20.4561,9.6335983 19.3341,9.6335983 C18.2131,9.6326 17.3391,10.0726 16.7131,10.9516 C16.0861,11.8326 15.7730976,13.0256 15.7730976,14.5336 C15.7721,16.0616 16.0841,17.2706 16.7111,18.1596 C17.3361,19.0496 18.2101,19.4936 19.3311,19.4946 C20.4541,19.4946 21.3271,19.0506 21.9541,18.1616 C22.5801,17.2726 22.8941,16.0636 22.8941,14.5356 M26.3711,14.5366 C26.3701,15.7366 26.2011,16.8276 25.8651,17.8146 C25.5271,18.7996 25.0501,19.6416 24.4341,20.3366 C23.8171,21.0326 23.0741,21.5746 22.2051,21.9606 C21.3351,22.3466 20.3771,22.5396 19.3311,22.5396 C18.2841,22.5396 17.3321,22.3456 16.4711,21.9596 C15.6121,21.5716 14.8731,21.0296 14.2571,20.3336 C13.6411,19.6376 13.1601,18.7966 12.8141,17.8106 C12.4681,16.8236 12.2961,15.7326 12.2970957,14.5326 C12.2970957,13.3336 12.4691,12.2466 12.8161,11.2696 C13.1621,10.2946 13.6491,9.4576 14.2751,8.7616 C14.9011,8.0656 15.6441,7.5286 16.5031,7.1526 C17.3641,6.7766 18.3071,6.5876 19.3351,6.5876 C20.3631,6.5876 21.3121,6.7776 22.1801,7.1536 C23.0491,7.5316 23.7921,8.0686 24.4091,8.7646 C25.0261,9.4606 25.5061,10.2976 25.8521,11.2736 C26.1971,12.2506 26.3711,13.3386 26.3711,14.5366" id="Fill-10" fill="#0070AD"></path>
                    <g id="Group-14" transform="translate(0.000000, 6.443750)">
                        <mask id="mask-4" fill="white">
                            <use xlink:href="#path-3"></use>
                        </mask>
                        <g id="Clip-13"></g>
                        <path d="M11.2701,9.91555 C11.0961,9.43255 10.8211,9.00255 10.4441,8.62455 C10.0681,8.24755 9.5881,7.90955 9.0081,7.60855 C8.4291,7.30955 7.7231,7.00455 6.8921,6.69455 C6.3891,6.52055 5.9641,6.35155 5.6161,6.18755 C5.2681,6.02255 4.9871,5.85855 4.7751,5.69355 C4.5621,5.52955 4.4131,5.35055 4.3251,5.15755 C4.2381,4.96455 4.1951,4.74155 4.1951,4.48955 C4.1951,3.98655 4.4161,3.61555 4.8621,3.37355 C5.3071,3.13155 5.8881,3.01055 6.6021,3.01155 C7.1781,3.01155 7.7041,3.05155 8.1791,3.12855 C8.1791,3.12855 8.4671,3.17455 8.4681,3.17455 C9.4871,3.29155 10.4461,2.64755 10.6541,1.62555 L10.8091,0.86155 C10.1141,0.62755 9.4441,0.48255 8.9811,0.38755 C8.3721,0.26255 7.4551,0.14055 6.4291,0.14055 C4.6701,0.14055 3.2771,0.54055 2.2521,1.34255 C1.2281,2.14455 0.7151,3.24155 0.7151,4.63455 C0.7151,5.34955 0.8251,5.95355 1.0471,6.44655 C1.2701,6.94055 1.5741,7.36055 1.9591,7.70855 C2.3471,8.05655 2.8061,8.36155 3.3381,8.62255 C3.8701,8.88455 4.4551,9.13055 5.0921,9.36255 C6.1371,9.75055 6.8861,10.10755 7.3401,10.43655 C7.7931,10.76555 8.0211,11.18155 8.0211,11.68455 C8.0211,12.22555 7.8081,12.60755 7.3831,12.82955 C6.9571,13.05155 6.2811,13.16255 5.3531,13.16255 C4.3871,13.16255 3.6411,13.05455 3.1731,12.94555 C2.7831,12.85455 2.5561,12.77055 2.2131,12.77055 C1.3111,12.77055 0.4811,13.33355 0.2221,14.24355 L-0.0009,15.02455 C0.4111,15.21155 1.4071,15.54855 2.0811,15.72055 C2.8121,15.90655 3.7081,16.06255 5.3231,16.06255 C7.3151,16.06255 8.8471,15.69155 9.9201,14.94755 C10.9941,14.20355 11.5311085,13.10555 11.5311085,11.65655 C11.5321,10.97955 11.4451,10.39955 11.2701,9.91555" id="Fill-12" fill="#0070AD" mask="url(#mask-4)"></path>
                    </g>
                    <path d="M68.8062,32.6464 C69.8712,32.6464 70.6962,31.7774 70.7052,30.7484 C70.6312,30.2984 70.4742,29.4664 69.3072,29.4664 C68.0312,29.4664 67.6082,31.2504 66.5692,32.4004 C66.4852,33.0544 65.8672,33.6394 65.0922,33.7374 C65.2832,33.9354 65.7032,34.0424 66.2062,34.0424 C67.1262,34.0424 68.2412,33.7654 68.8242,33.1904 C68.0452,33.2004 67.5452,32.7004 67.4962,32.0074 C67.8752,32.4674 68.3042,32.6464 68.8062,32.6464" id="Fill-15" fill="#12ABDB"></path>
                    <g id="Group-19" transform="translate(22.000000, 26.000000)">
                        <mask id="mask-6" fill="white">
                            <use xlink:href="#path-5"></use>
                        </mask>
                        <g id="Clip-18"></g>
                        <path d="M20.1548,3.4301 C20.4798,3.4301 20.6668,3.7291 20.6338,4.1601 C20.5958,4.6661 20.2278,5.2441 19.5888,5.6991 C19.2548,4.7481 19.5038,3.4301 20.1548,3.4301 M15.8008,10.2931 C15.4658,10.2931 15.2898,9.9761 15.2898,9.6161 C15.2898,8.6481 16.0008,8.1331 16.8768,7.6921 C16.8368,9.8101 16.3438,10.2931 15.8008,10.2931 M38.6208,3.8091 C38.6208,3.2421 38.5868,2.8641 38.2158,2.8641 C38.0468,2.8641 37.9648,2.8971 37.8158,2.9471 C37.9478,4.8621 37.5138,6.5481 36.9868,6.5481 C36.2948,6.5481 36.6388,2.4441 35.1728,2.4441 C33.8188,2.4441 33.6258,5.7201 33.4708,5.7201 C33.3668,5.7201 33.3498,4.8601 33.3558,4.2041 C33.4138,3.8891 33.4428,3.6071 33.4428,3.3931 C33.4428,3.0881 33.3188,2.5601 32.6278,2.8231 C32.6508,5.1661 32.1808,6.5831 31.6548,6.5831 C30.8788,6.5831 30.8708,4.4581 30.8708,3.8731 C30.8708,3.3011 30.9118,2.5371 30.0618,2.8091 C29.9348,4.8531 29.3998,6.3951 29.0618,6.3951 C28.5578,6.3951 28.6598,2.8641 27.5708,2.8641 C26.5918,2.8641 26.2898,6.2081 26.0858,6.2081 C25.7198,6.2081 26.1998,2.4441 24.7868,2.4441 C24.0448,2.4441 23.7508,3.7011 23.4598,5.1081 C23.4028,5.3811 23.3438,5.3881 23.3348,5.0811 C23.3278,4.8281 23.3258,4.5491 23.3278,4.2931 C23.6838,2.8791 23.2498,2.3561 22.5928,2.7331 C22.8048,5.3431 21.6068,6.6181 20.6878,6.6181 C20.3548,6.6181 20.0948,6.4771 19.8988,6.2541 C21.0028,5.5781 21.4918,4.8021 21.4918,4.0451 C21.4918,3.2231 21.0198,2.7501 20.2368,2.7501 C19.1428,2.7501 18.5318,3.8761 18.5318,4.8331 C18.5318,5.3481 18.6278,5.7851 18.7868,6.1461 C18.4108,6.3251 18.0558,6.4801 17.7258,6.6311 C17.6988,5.6461 17.5878,4.6121 17.5028,3.6581 C16.9208,3.4991 16.7508,3.7781 16.7058,4.2961 C16.6018,5.4781 16.1648,6.2121 15.7778,6.2121 C15.4868,6.2121 15.3078,5.8571 15.2878,5.4801 C15.1788,3.5861 16.7168,3.0591 17.5208,3.3331 C17.6878,2.9161 17.5058,2.6151 16.7798,2.6151 C15.8988,2.6151 15.2418,3.1501 14.7588,3.8351 C14.4368,4.2931 14.0648,4.6171 13.5718,5.0101 C13.5838,4.8961 13.5908,4.7841 13.5908,4.6731 C13.5908,3.3371 12.8678,2.7501 12.1758,2.7501 C11.6028,2.7501 11.2448,3.0941 11.0358,3.6191 C10.9838,3.0921 10.8798,2.8641 10.5728,2.8641 C10.4398,2.8641 10.2588,2.9021 10.0628,2.9961 C10.1528,3.2911 10.1868,3.9441 10.1868,4.3741 C10.1868,5.9801 9.7268,6.7001 9.2848,6.7001 C8.7778,6.7001 8.6978,4.7951 8.6558,4.0531 C8.5908,4.0311 8.5178,4.0081 8.4078,4.0081 C7.9498,4.0081 7.8898,4.6231 7.7778,5.1881 C7.6508,5.8141 7.2908,6.6031 6.7568,6.6031 C6.4328,6.6031 6.2318,6.2911 6.2068,5.7311 C6.1548,4.5951 7.0988,3.2491 8.5778,3.6671 C8.7708,3.2151 8.4668,2.8711 7.8528,2.8711 C6.7718,2.8711 5.8798,3.6801 5.4898,4.6371 C5.0938,5.5151 4.4008,6.8041 2.9928,6.8041 C1.9988,6.8041 1.2368,5.9371 1.2368,4.1161 C1.2368,2.5471 2.2258,1.0561 3.2828,1.0561 C4.0198,1.0561 4.1908,1.7821 4.1268,2.4641 C4.5088,2.7711 5.1358,2.4861 5.1358,1.7191 C5.1358,1.1901 4.7068,0.2941 3.3218,0.2941 C1.6048,0.2941 0.0908,2.0041 0.0908,4.2521 C0.0908,6.4281 1.1958,7.7141 2.7588,7.7141 C3.7458,7.7141 4.6758,7.1521 5.3178,6.1131 C5.4788,7.0221 6.0988,7.4051 6.5628,7.4051 C7.3148,7.4051 7.8058,6.9181 8.0748,6.2591 C8.2418,6.9201 8.5948,7.4071 9.1798,7.4071 C9.5928,7.4071 9.9168,7.1981 10.1588,6.8621 C10.0618,9.1561 9.9398,10.6181 11.2968,10.3301 C11.0868,9.6781 11.0198,8.4911 11.0198,7.4261 C11.0198,4.5091 11.5018,3.5491 12.1038,3.5491 C12.5408,3.5491 12.6818,4.1061 12.6818,4.7001 C12.6818,5.0181 12.6508,5.3841 12.5718,5.7141 C11.8298,6.1811 11.2388,6.5501 11.2388,7.0191 C11.2388,7.3891 11.5118,7.4241 11.7518,7.4241 C12.3208,7.4241 13.0048,6.8661 13.3838,5.8121 C13.7148,5.6121 14.0458,5.3831 14.3638,5.0701 C14.3518,5.1771 14.3458,5.2851 14.3458,5.3941 C14.3458,6.4401 14.8038,7.0721 15.5358,7.0721 C16.1068,7.0721 16.5378,6.6661 16.8408,6.0581 C16.8588,6.4081 16.8718,6.7311 16.8768,7.0281 C15.7158,7.5651 14.4298,8.1111 14.4298,9.6251 C14.4298,10.4091 14.9958,11.0001 15.7318,11.0001 C17.3498,11.0001 17.7188,9.2921 17.7338,7.3081 C18.2608,7.0801 18.6548,6.9041 19.1058,6.6801 C19.4938,7.1641 20.0188,7.4071 20.5028,7.4071 C21.4158,7.4071 22.1008,6.9231 22.6528,5.9421 C22.7498,6.6891 22.9428,7.4071 23.3408,7.4071 C24.0638,7.4071 24.2108,3.6231 24.7488,3.6231 C25.1618,3.6231 24.8228,7.7171 25.9108,7.7171 C26.8418,7.7171 27.0168,4.1141 27.4708,4.1141 C27.7928,4.1141 27.8168,7.4081 28.8328,7.4081 C29.3318,7.4081 29.8728,6.8081 30.1438,5.5511 C30.2708,6.3871 30.6928,7.4081 31.5178,7.4081 C31.9998,7.4081 32.4138,6.9211 32.7318,6.2741 C32.8208,6.9401 33.0088,7.4081 33.3738,7.4081 C34.3218,7.4081 34.2898,3.6311 35.0408,3.6311 C35.6258,3.6311 35.4438,7.4081 36.8388,7.4081 C37.5028,7.4081 37.8148,6.8421 38.0028,6.1331 C38.2588,7.1761 38.6738,7.4081 39.0138,7.4081 C39.2298,7.4081 39.3928,7.3321 39.6068,7.0771 C38.5298,6.6091 38.6208,4.9071 38.6208,3.8091" id="Fill-17" fill="#0070AD" mask="url(#mask-6)"></path>
                    </g>
                    <path d="M52.48,27.999 C52.791,27.988 53.008,27.722 53.0090035,27.404 C53.01,27.087 52.795,26.838 52.485,26.849 C52.174,26.86 51.92,27.126 51.918997,27.443 C51.918,27.761 52.168,28.01 52.48,27.999" id="Fill-20" fill="#0070AD"></path>
                    <path d="M60.2037,28.1601 C60.4867,28.1501 60.7167,27.8961 60.7187033,27.5941 C60.7197,27.2911 60.4907,27.0541 60.2077,27.0651 C59.9247,27.0751 59.6947,27.3281 59.6937,27.6311 C59.6917,27.9331 59.9207,28.1701 60.2037,28.1601" id="Fill-22" fill="#0070AD"></path>
                    <path d="M70.7037,30.6728 C70.6817,29.4758 70.1107,28.4658 69.2337,27.6598 C68.5667,27.0508 67.7747,26.5888 66.9437,26.2408 C66.8777,26.2128 66.8097,26.1848 66.7427,26.1588 C65.7207,27.3838 62.1797,28.2978 62.1797,30.8658 C62.1797,31.8698 62.8137,32.8078 63.7447,33.1848 C64.2837,33.3888 64.8237,33.3998 65.3647,33.2188 C65.8457,33.0618 66.2397,32.7638 66.5677,32.3998 C67.6077,31.2508 68.0307,29.4668 69.3077,29.4668 C70.4747,29.4668 70.6317,30.2988 70.7057,30.7488 C70.7057,30.7468 70.7057,30.7158 70.7037,30.6728" id="Fill-24" fill="#0070AD"></path>
                    <path d="M8.4341,30.0673 C8.2901,30.0673 8.1741,30.0723 8.0821,30.0803 L8.0821,31.1293 L8.3541,31.1293 C8.6231,31.1293 8.8301,31.0913 8.9761,31.0153 C9.1211,30.9403 9.1941,30.7973 9.1941,30.5873 C9.1941,30.4863 9.1741,30.4023 9.1361,30.3343 C9.0981,30.2663 9.0431,30.2123 8.9761,30.1733 C8.9081,30.1353 8.8271,30.1083 8.7341,30.0923 C8.6401,30.0753 8.5391,30.0673 8.4341,30.0673 M8.3941,29.5833 C8.8401,29.5833 9.1841,29.6643 9.4211,29.8273 C9.6611,29.9903 9.7801,30.2453 9.7801,30.5913 C9.7801,30.7723 9.7481,30.9273 9.6851,31.0563 C9.6211,31.1843 9.5291,31.2903 9.4071,31.3713 C9.2851,31.4533 9.1371,31.5133 8.9611,31.5513 C8.7881,31.5903 8.5871,31.6093 8.3631,31.6093 L8.0821,31.6093 L8.0821,32.6933 L7.5231,32.6933 L7.5231,29.6583 C7.6531,29.6283 7.7971,29.6093 7.9561,29.5983 C8.1151,29.5883 8.2611,29.5833 8.3941,29.5833" id="Fill-26" fill="#0070AD"></path>
                    <path d="M10.8463,32.3159 C11.0133,32.3159 11.1383,32.3069 11.2253,32.2889 L11.2253,31.6939 C11.1943,31.6849 11.1513,31.6759 11.0953,31.6669 C11.0373,31.6579 10.9763,31.6539 10.9083,31.6539 C10.8503,31.6539 10.7893,31.6579 10.7283,31.6669 C10.6673,31.6759 10.6133,31.6919 10.5643,31.7159 C10.5163,31.7389 10.4763,31.7729 10.4463,31.8159 C10.4173,31.8589 10.4023,31.9129 10.4023,31.9779 C10.4023,32.1049 10.4423,32.1939 10.5223,32.2419 C10.6023,32.2909 10.7103,32.3159 10.8463,32.3159 M10.8023,30.3119 C10.9793,30.3119 11.1293,30.3339 11.2503,30.3779 C11.3733,30.4229 11.4693,30.4849 11.5423,30.5649 C11.6143,30.6449 11.6663,30.7419 11.6973,30.8559 C11.7293,30.9699 11.7433,31.0949 11.7433,31.2309 L11.7433,32.6399 C11.6603,32.6579 11.5343,32.6799 11.3683,32.7049 C11.2003,32.7299 11.0133,32.7429 10.8023,32.7429 C10.6623,32.7429 10.5343,32.7289 10.4193,32.7019 C10.3043,32.6759 10.2063,32.6329 10.1243,32.5739 C10.0433,32.5139 9.9793,32.4369 9.9343,32.3419 C9.8873,32.2469 9.8643,32.1309 9.8643,31.9919 C9.8643,31.8579 9.8903,31.7459 9.9423,31.6539 C9.9933,31.5619 10.0643,31.4869 10.1533,31.4299 C10.2423,31.3719 10.3453,31.3299 10.4623,31.3049 C10.5783,31.2799 10.7003,31.2669 10.8283,31.2669 C10.8883,31.2669 10.9503,31.2709 11.0153,31.2779 C11.0803,31.2859 11.1493,31.2979 11.2253,31.3159 L11.2253,31.2269 C11.2253,31.1649 11.2173,31.1059 11.2013,31.0489 C11.1873,30.9929 11.1603,30.9439 11.1243,30.9009 C11.0873,30.8579 11.0373,30.8239 10.9773,30.8009 C10.9163,30.7769 10.8403,30.7649 10.7493,30.7649 C10.6243,30.7649 10.5103,30.7739 10.4063,30.7919 C10.3033,30.8099 10.2193,30.8299 10.1533,30.8539 L10.0863,30.4189 C10.1553,30.3949 10.2543,30.3709 10.3843,30.3469 C10.5153,30.3239 10.6543,30.3119 10.8023,30.3119" id="Fill-28" fill="#0070AD"></path>
                    <path d="M13.4107,30.8539 C13.3657,30.8389 13.3047,30.8229 13.2257,30.8069 C13.1467,30.7909 13.0567,30.7829 12.9517,30.7829 C12.8927,30.7829 12.8307,30.7889 12.7637,30.8009 C12.6967,30.8119 12.6497,30.8229 12.6237,30.8319 L12.6237,32.6929 L12.0867,32.6929 L12.0867,30.4809 C12.1897,30.4419 12.3187,30.4059 12.4747,30.3719 C12.6307,30.3379 12.8027,30.3199 12.9917,30.3199 C13.0277,30.3199 13.0697,30.3229 13.1167,30.3269 C13.1647,30.3319 13.2117,30.3379 13.2597,30.3449 C13.3067,30.3519 13.3517,30.3609 13.3957,30.3719 C13.4397,30.3819 13.4767,30.3919 13.5047,30.4009 L13.4107,30.8539 Z" id="Fill-30" fill="#0070AD"></path>
                    <path d="M13.7261,29.7563 L14.2631,29.6673 L14.2631,30.3693 L15.0891,30.3693 L15.0891,30.8183 L14.2631,30.8183 L14.2631,31.7643 C14.2631,31.9513 14.2921,32.0843 14.3521,32.1643 C14.4121,32.2443 14.5121,32.2843 14.6551,32.2843 C14.7511,32.2843 14.8381,32.2743 14.9141,32.2533 C14.9901,32.2323 15.0491,32.2133 15.0941,32.1953 L15.1821,32.6223 C15.1211,32.6493 15.0391,32.6763 14.9391,32.7043 C14.8371,32.7323 14.7191,32.7463 14.5831,32.7463 C14.4161,32.7463 14.2791,32.7243 14.1671,32.6803 C14.0571,32.6353 13.9671,32.5713 13.9041,32.4863 C13.8381,32.4023 13.7921,32.3003 13.7661,32.1803 C13.7391,32.0603 13.7261,31.9233 13.7261,31.7693 L13.7261,29.7563 Z" id="Fill-32" fill="#0070AD"></path>
                    <path d="M18.0181,31.5292 C18.0181,31.2982 17.9681,31.1152 17.8701,30.9802 C17.7701,30.8452 17.6311,30.7782 17.4551,30.7782 C17.2761,30.7782 17.1371,30.8452 17.0391,30.9802 C16.9391,31.1152 16.8891,31.2982 16.8891,31.5292 C16.8891,31.7632 16.9391,31.9482 17.0391,32.0842 C17.1371,32.2212 17.2761,32.2892 17.4551,32.2892 C17.6311,32.2892 17.7701,32.2212 17.8701,32.0842 C17.9681,31.9482 18.0181,31.7632 18.0181,31.5292 M18.5691,31.5292 C18.5691,31.7132 18.5421,31.8802 18.4891,32.0312 C18.4351,32.1822 18.3591,32.3112 18.2621,32.4182 C18.1641,32.5242 18.0471,32.6072 17.9101,32.6662 C17.7711,32.7252 17.6201,32.7552 17.4551,32.7552 C17.2891,32.7552 17.1361,32.7252 17.0001,32.6662 C16.8641,32.6072 16.7471,32.5242 16.6491,32.4182 C16.5511,32.3112 16.4761,32.1822 16.4201,32.0312 C16.3661,31.8802 16.3391,31.7132 16.3391,31.5292 C16.3391,31.3452 16.3661,31.1792 16.4201,31.0292 C16.4761,30.8802 16.5521,30.7512 16.6511,30.6442 C16.7501,30.5382 16.8701,30.4562 17.0051,30.3982 C17.1411,30.3412 17.2911,30.3112 17.4551,30.3112 C17.6161,30.3112 17.7661,30.3412 17.9041,30.3982 C18.0421,30.4562 18.1611,30.5382 18.2581,30.6442 C18.3561,30.7512 18.4321,30.8802 18.4861,31.0292 C18.5421,31.1792 18.5691,31.3452 18.5691,31.5292" id="Fill-34" fill="#0070AD"></path>
                    <path d="M19.7955,29.2451 C19.9195,29.2451 20.0285,29.2561 20.1235,29.2781 C20.2185,29.3001 20.2895,29.3211 20.3365,29.3381 L20.2355,29.7831 C20.1865,29.7591 20.1255,29.7401 20.0605,29.7251 C19.9925,29.7101 19.9215,29.7031 19.8435,29.7031 C19.7585,29.7031 19.6865,29.7161 19.6265,29.7411 C19.5675,29.7661 19.5205,29.8011 19.4835,29.8451 C19.4485,29.8911 19.4235,29.9441 19.4085,30.0071 C19.3945,30.0711 19.3865,30.1411 19.3865,30.2141 L19.3865,30.3691 L20.2315,30.3691 L20.2315,30.8181 L19.3865,30.8181 L19.3865,32.6931 L18.8495,32.6931 L18.8495,30.2051 C18.8495,29.9061 18.9275,29.6711 19.0835,29.5001 C19.2415,29.3301 19.4795,29.2451 19.7955,29.2451" id="Fill-36" fill="#0070AD"></path>
                    <path d="M36.7095,17.6728 C36.4195,17.8858 36.0435,18.0698 35.5805,18.2238 C35.1185,18.3798 34.6235,18.4568 34.0985,18.4568 C33.1365,18.4568 32.3535,18.1128 31.7455,17.4258 C31.1375,16.7398 30.8345,15.6508 30.8345,14.1608 C30.8345,12.7878 31.1515,11.6798 31.7865,10.8378 C32.4205,9.9968 33.3365,9.5758 34.5335,9.5758 C35.0605,9.5758 35.4945,9.6008 35.8395,9.6488 C36.1845,9.6968 36.4735,9.7498 36.7095,9.8078 L36.7095,17.6728 Z M37.7145,6.9058 C36.7305,6.7318 35.6895,6.6448 34.5945,6.6448 C33.4615,6.6448 32.4495,6.8288 31.5595,7.1958 C30.6675,7.5638 29.9105,8.0768 29.2885,8.7338 C28.6655,9.3928 28.1925,10.1858 27.8675,11.1138 C27.5425,12.0428 27.3805,13.0588 27.3805,14.1608 C27.3805,15.3418 27.5335,16.3818 27.8405,17.2808 C28.1465,18.1808 28.5735,18.9308 29.1215,19.5298 C29.6685,20.1298 30.3285,20.5848 31.1005,20.8948 C31.8695,21.2038 32.7185,21.3588 33.6475,21.3588 C34.3545,21.3588 34.9805,21.2718 35.5275,21.0978 C36.0025,20.9458 36.3945,20.7948 36.7075,20.6438 C36.7075,22.1188 36.0845,23.2898 34.1235,23.7858 C33.3215,23.9818 32.2475,23.9278 30.8135,23.5288 C30.4175,24.2648 30.1855,25.5258 30.8005,26.2628 C31.3315,26.8968 32.6595,27.0298 33.4935,27.0298 C35.3595,27.0298 37.3915,26.2288 38.3505,25.3538 C39.5935,24.2178 40.2155,22.4248 40.2155,19.9768 L40.2215,7.4568 C39.5335,7.2638 38.6985,7.0798 37.7145,6.9058 L37.7145,6.9058 Z" id="Fill-38" fill="#0070AD"></path>
                </g>
            </g>
        </g>
    </g>
</svg>